<svg width="18" height="14" viewBox="0 0 18 14" fill="none" xmlns="http://www.w3.org/2000/svg">
<path d="M15.4125 0.5625C15.4125 0.39375 15.3562 0.28125 15.2438 0.16875C15.1313 0.0562498 15.0188 0 14.85 0C14.6812 0 14.5688 0.0562498 14.4563 0.16875L12.9375 1.6875C11.8125 1.125 10.5188 0.7875 9 0.61875C6.1875 0.9 3.9375 1.9125 2.3625 3.7125C0.7875 5.5125 0 6.525 0 6.80625C0 7.0875 0.84375 8.1 2.3625 9.9C2.75625 10.35 3.15 10.7438 3.65625 11.0813L2.1375 12.6562C2.025 12.7688 1.96875 12.8813 1.96875 13.05C1.96875 13.2188 2.025 13.3313 2.1375 13.4437C2.25 13.5562 2.3625 13.6125 2.53125 13.6125C2.7 13.6125 2.8125 13.5562 2.925 13.4437L15.3 0.95625C15.3563 0.84375 15.4125 0.73125 15.4125 0.5625ZM4.05 9.84375C2.7 8.60625 1.8 7.59375 1.35 6.80625C1.85625 5.9625 2.75625 4.95 4.05 3.76875C5.34375 2.5875 7.03125 1.85625 9 1.74375C10.125 1.8 11.1938 2.08125 12.0938 2.53125L11.1375 3.4875C10.5187 3.09375 9.84375 2.86875 9 2.86875C7.875 2.86875 6.975 3.2625 6.1875 3.99375C5.4 4.725 5.0625 5.68125 5.0625 6.80625C5.0625 7.65 5.2875 8.38125 5.68125 9L4.5 10.2375C4.33125 10.125 4.1625 9.95625 4.05 9.84375ZM6.525 8.15625C6.3 7.7625 6.1875 7.3125 6.1875 6.80625C6.1875 6.01875 6.46875 5.34375 7.03125 4.8375C7.59375 4.33125 8.2125 3.99375 9 3.99375C9.50625 3.99375 9.95625 4.10625 10.2937 4.33125L6.525 8.15625ZM15.6375 3.7125C15.4125 3.43125 15.1312 3.20625 14.9062 2.98125L14.0625 3.825C15.3562 5.00625 16.2562 6.01875 16.7062 6.80625C16.2 7.65 15.3 8.6625 14.0062 9.84375C12.7125 11.025 10.9687 11.7563 8.99998 11.8688C8.09998 11.8125 7.25623 11.6438 6.52498 11.3625L5.68123 12.2063C6.69373 12.6 7.76248 12.8813 8.99998 12.9938C11.8125 12.7125 14.0625 11.7 15.6375 9.9C17.2125 8.1 18 7.0875 18 6.80625C18 6.525 17.1562 5.5125 15.6375 3.7125Z" fill="#67CCEB"/>
<path d="M9.00078 9.61895C8.77578 9.61895 8.55078 9.5627 8.32578 9.50644L7.42578 10.4064C7.93203 10.6314 8.43828 10.7439 9.00078 10.7439C10.1258 10.7439 11.0258 10.3502 11.8133 9.61895C12.5445 8.8877 12.9383 7.93145 12.9383 6.80645C12.9383 6.24395 12.8258 5.68145 12.6008 5.23145L11.7008 6.13145C11.757 6.35645 11.8133 6.58145 11.8133 6.80645C11.8133 7.59395 11.532 8.26895 10.9695 8.7752C10.407 9.28145 9.78828 9.61895 9.00078 9.61895Z" fill="#67CCEB"/>
</svg>
