<svg width="17" height="17" viewBox="0 0 17 17" fill="none" xmlns="http://www.w3.org/2000/svg">
<g clip-path="url(#clip0_1253_4212)">
<path d="M8.27992 8.57388L9.81694 14.9415C9.81694 14.9415 12.0023 12.4583 13.7194 11.4699C13.7194 11.4699 12.8494 7.51341 13.5192 5.26849L8.27992 8.57388Z" fill="#076170"/>
<path d="M11.2301 13.5782C11.2301 13.5782 9.96807 7.9094 10.1011 7.57969C10.2292 7.2299 11.884 6.51161 11.884 6.51161C11.884 6.51161 12.4561 11.9643 12.6992 12.2669C12.7145 12.242 12.0641 12.7179 11.2301 13.5782Z" fill="#B3690E"/>
<path d="M9.81644 14.9415C9.81644 14.9415 7.59022 13.8208 4.51895 13.6906C4.51895 13.6906 3.95928 10.4032 2.31836 8.18457L8.27942 8.57385L9.81644 14.9415Z" fill="#3BAACF"/>
<path d="M5.81159 13.9314C5.81159 13.9314 7.66377 14.2071 7.83763 14.3989C8.01148 14.5908 6.58598 8.68515 6.58598 8.68515C6.58598 8.68515 4.12079 8.59995 3.91992 8.64844C3.91992 8.64844 5.19996 10.8691 5.81159 13.9314Z" fill="#E9C243"/>
<path opacity="0.3" d="M8.27963 8.57358L8.53661 9.6382L13.2724 6.62443C13.3063 6.14857 13.3853 5.6831 13.4989 5.27304L8.27963 8.57358ZM2.94682 9.20183C2.75426 8.84441 2.54646 8.51193 2.29849 8.18915L8.25955 8.57843L8.51652 9.64305L2.94682 9.20183Z" fill="black"/>
<path d="M1.72163 7.73348L7.75196 7.61711L13.7109 4.56316L7.42156 5.7199L1.72163 7.73348Z" fill="#4FC7E8"/>
<path d="M1.7207 7.7334L2.48817 8.88738L8.10983 9.10349L7.75103 7.61703L1.7207 7.7334Z" fill="#3BAACF"/>
<path d="M8.11112 9.10335C8.11112 9.10335 12.4652 6.1817 13.631 5.81528C13.631 5.81528 13.5416 5.09283 13.7162 4.58303L7.75232 7.61689L8.11112 9.10335Z" fill="#076170"/>
<path d="M3.52101 7.7031L4.95274 8.52667L6.09771 7.63383L7.83006 6.62046L10.2281 6.33924L11.5116 6.28452L12.3116 5.28362L3.52101 7.7031Z" fill="#F0AE11"/>
<path d="M6.09696 7.63337L7.82931 6.62L10.2273 6.33878L12.3108 5.28316L7.54393 5.96613L3.52025 7.70263L6.09696 7.63337Z" fill="#F0AE11"/>
<path d="M3.51953 7.70215L3.85894 9.10825L6.3643 9.18376L6.09624 7.63288L3.51953 7.70215Z" fill="#F8D048"/>
<path d="M10.2296 6.33867L10.5946 7.67482L12.4579 6.58734L12.3131 5.28306L10.2296 6.33867Z" fill="#C47116"/>
<path d="M8.7338 5.69914C8.7338 5.69914 8.39439 4.29304 9.46456 2.73801C9.46456 2.73801 8.71371 3.23811 8.29257 3.25474C7.79108 3.29075 7.48977 2.74701 7.48977 2.74701C7.48977 2.74701 6.93564 5.55923 7.35471 5.79819C7.77862 6.05725 8.7338 5.69914 8.7338 5.69914Z" fill="#EA9F07"/>
<path d="M7.14601 6.95513C7.14601 6.95513 5.97471 5.53725 4.10383 5.09602C4.10383 5.09602 5.38041 4.66034 5.64293 4.42691C5.98095 4.154 6.08069 3.59849 6.08069 3.59849C6.08069 3.59849 8.1379 5.78037 8.1095 6.19112C8.0811 6.60187 7.14601 6.95513 7.14601 6.95513Z" fill="#F8D048"/>
<path d="M7.94638 6.57057C7.94638 6.57057 6.83743 7.34843 5.27062 7.72662C1.97147 8.50171 0.937319 6.24294 4.24479 5.67842C6.96488 5.23442 7.94638 6.57057 7.94638 6.57057Z" fill="#EA9F07"/>
<path d="M7.71936 6.60368C7.71936 6.60368 9.19473 6.3751 10.4582 5.70876C13.0958 4.30681 11.5373 2.42969 9.10399 3.97364C7.11397 5.24052 7.71936 6.60368 7.71936 6.60368Z" fill="#F0AE11"/>
<path d="M7.94289 6.57068C7.94289 6.57068 7.25231 7.05624 6.26803 7.29382C4.21913 7.78838 3.55903 6.37466 5.62178 6.02556C7.31811 5.74364 7.94289 6.57068 7.94289 6.57068Z" fill="#824000"/>
<path d="M7.94256 6.57144C7.94256 6.57144 8.96632 6.40936 9.85224 5.94042C11.6996 4.96308 10.5975 3.65602 8.91991 4.71995C7.51935 5.61072 7.94256 6.57144 7.94256 6.57144Z" fill="#824000"/>
</g>
<defs>
<clipPath id="clip0_1253_4212">
<rect width="13.225" height="13.225" fill="white" transform="translate(0.402344 4.0332) rotate(-13.5704)"/>
</clipPath>
</defs>
</svg>
