<svg width="85" height="65" viewBox="0 0 85 65" fill="none" xmlns="http://www.w3.org/2000/svg">
<path d="M46.5871 62.6986C46.5195 62.7013 46.4526 62.6857 46.3955 62.6539C46.3384 62.6221 46.2937 62.5756 46.2676 62.5207C46.2415 62.4658 46.2353 62.4051 46.2496 62.347C46.264 62.2888 46.2984 62.236 46.348 62.1956L46.3706 62.1165C46.3677 62.1102 46.3647 62.1038 46.3616 62.0975C46.2936 61.9561 46.1796 61.8355 46.0339 61.7509C45.8882 61.6663 45.7173 61.6214 45.5428 61.622C45.3682 61.6226 45.1977 61.6685 45.0528 61.7541C44.9078 61.8396 44.7948 61.961 44.7279 62.1029C44.4607 62.6692 44.1205 63.2365 44.0368 63.8353C43.9999 64.1 44.0154 64.3683 44.0828 64.6283C43.4552 63.4236 43.1293 62.1142 43.1272 60.7889C43.1271 60.4563 43.1481 60.124 43.1901 59.7935C43.2248 59.5225 43.273 59.2535 43.3346 58.9864C43.671 57.5372 44.3932 56.1789 45.442 55.0231C45.9495 54.7794 46.36 54.4046 46.6181 53.9492C46.7116 53.7855 46.7777 53.6108 46.8143 53.4305C46.757 53.4371 46.5984 52.6697 46.6416 52.6226C46.5618 52.516 46.419 52.4631 46.3318 52.3591C45.8984 51.842 45.3013 51.9323 44.9895 52.635C44.3236 52.9308 44.3171 53.4213 44.7257 53.8931C44.9857 54.1932 45.0214 54.5993 45.2495 54.9206C45.2261 54.9471 45.2017 54.9727 45.1782 54.9991C44.7492 55.4845 44.3753 56.0058 44.0619 56.5554C44.1381 55.9397 44.0471 55.3168 43.7965 54.7381C43.5424 54.1987 43.0662 53.7445 42.6468 53.2782C42.1431 52.7181 41.1102 52.9626 41.0215 53.6725C41.0206 53.6794 41.0198 53.6863 41.0189 53.6932C41.0812 53.7241 41.1422 53.7569 41.2019 53.7916C41.2768 53.8357 41.3349 53.8986 41.3685 53.9722C41.4021 54.0459 41.4096 54.1267 41.3901 54.2041C41.3706 54.2816 41.325 54.352 41.2592 54.4062C41.1934 54.4605 41.1106 54.496 41.0215 54.508L41.0124 54.5093C41.0346 54.7068 41.0738 54.9026 41.1297 55.095C40.5917 56.9258 41.7532 57.5927 43.4116 57.6226C43.4482 57.6392 43.4839 57.6557 43.5205 57.6714C43.2056 58.4567 43.0081 59.2747 42.9329 60.1049C42.8903 60.5947 42.8928 61.0866 42.9404 61.5761L42.9376 61.5587C42.8174 61.0145 42.4875 60.5234 42.0036 60.1685C41.2849 59.6489 40.2694 59.4576 39.494 59.0399C39.4116 58.9934 39.3158 58.9685 39.2178 58.9683C39.1199 58.9681 39.0239 58.9925 38.9413 59.0387C38.8586 59.085 38.7927 59.151 38.7513 59.2291C38.7099 59.3072 38.6947 59.3941 38.7076 59.4795C38.7086 59.4856 38.7097 59.4917 38.7107 59.4977C38.8263 59.5392 38.9389 59.5869 39.0477 59.6406C39.11 59.6716 39.171 59.7044 39.2306 59.7391C39.3056 59.7832 39.3637 59.8461 39.3972 59.9197C39.4308 59.9934 39.4384 60.0742 39.4189 60.1516C39.3994 60.2291 39.3538 60.2995 39.288 60.3537C39.2222 60.408 39.1394 60.4435 39.0503 60.4555L39.0412 60.4568C39.0346 60.4576 39.0289 60.4584 39.0224 60.4593C39.2199 60.8742 39.4971 61.2562 39.8418 61.5885C40.1782 63.1867 41.623 63.3384 43.1685 62.8729H43.1694C43.339 63.5214 43.5847 64.1526 43.9025 64.7563H46.5214C46.5308 64.7307 46.5393 64.7043 46.5477 64.6787C46.3053 64.6921 46.0619 64.6793 45.823 64.6407C46.0174 64.4309 46.2117 64.2194 46.406 64.0096C46.4103 64.0057 46.4144 64.0015 46.4182 63.9972C46.5167 63.8898 46.6162 63.7833 46.7148 63.6759L46.7148 63.6757C46.7201 63.3466 46.6772 63.0182 46.5871 62.6987L46.5871 62.6986Z" fill="#F2F2F2"/>
<path d="M42.7047 26.2588C39.7539 26.2588 36.8694 25.4888 34.4159 24.0461C31.9624 22.6034 30.0501 20.5529 28.9208 18.1538C27.7916 15.7547 27.4962 13.1148 28.0718 10.568C28.6475 8.02112 30.0685 5.68169 32.155 3.84551C34.2415 2.00934 36.9 0.758884 39.7941 0.252283C42.6882 -0.254317 45.688 0.00568855 48.4142 0.999421C51.1404 1.99315 53.4705 3.67598 55.1099 5.8351C56.7493 7.99421 57.6243 10.5326 57.6243 13.1294C57.6198 16.6103 56.0465 19.9475 53.2495 22.4089C50.4525 24.8703 46.6603 26.2548 42.7047 26.2588V26.2588ZM42.7047 0.206768C39.8004 0.206768 36.9613 0.964667 34.5464 2.38462C32.1315 3.80458 30.2494 5.82282 29.1379 8.18412C28.0265 10.5454 27.7357 13.1437 28.3023 15.6505C28.8689 18.1572 30.2675 20.4598 32.3211 22.2671C34.3748 24.0743 36.9914 25.3051 39.8399 25.8037C42.6884 26.3023 45.641 26.0464 48.3243 25.0683C51.0076 24.0903 53.301 22.4339 54.9145 20.3088C56.5281 18.1837 57.3893 15.6852 57.3893 13.1294C57.3849 9.70329 55.8364 6.41862 53.0835 3.99599C50.3305 1.57337 46.598 0.21064 42.7047 0.206768V0.206768Z" fill="#F2F2F2"/>
<path d="M44.3413 17.8854H41.1694C41.0136 17.8854 40.8642 17.8309 40.7541 17.734C40.6439 17.637 40.582 17.5056 40.582 17.3685C40.582 17.2314 40.6439 17.0999 40.7541 17.003C40.8642 16.906 41.0136 16.8516 41.1694 16.8516H44.3413C44.4971 16.8516 44.6465 16.906 44.7566 17.003C44.8668 17.0999 44.9287 17.2314 44.9287 17.3685C44.9287 17.5056 44.8668 17.637 44.7566 17.734C44.6465 17.8309 44.4971 17.8854 44.3413 17.8854Z" fill="#E6E6E6"/>
<path d="M45.0666 32.8877H40.4373C40.21 32.8877 39.9919 32.8082 39.8312 32.6667C39.6704 32.5253 39.5801 32.3334 39.5801 32.1333C39.5801 31.9332 39.6704 31.7413 39.8312 31.5999C39.9919 31.4584 40.21 31.3789 40.4373 31.3789H45.0666C45.2939 31.3789 45.512 31.4584 45.6727 31.5999C45.8335 31.7413 45.9238 31.9332 45.9238 32.1333C45.9238 32.3334 45.8335 32.5253 45.6727 32.6667C45.512 32.8082 45.2939 32.8877 45.0666 32.8877Z" fill="#004AAD"/>
<path d="M58.2227 29.7239H27.2764C27.0006 29.7236 26.7363 29.6271 26.5413 29.4555C26.3463 29.2839 26.2366 29.0513 26.2363 28.8086V20.6897C26.2366 20.447 26.3463 20.2144 26.5413 20.0428C26.7363 19.8712 27.0006 19.7747 27.2764 19.7744H58.2227C58.4984 19.7747 58.7628 19.8712 58.9577 20.0428C59.1527 20.2144 59.2624 20.447 59.2627 20.6897V28.8086C59.2624 29.0513 59.1527 29.2839 58.9577 29.4555C58.7628 29.6271 58.4984 29.7236 58.2227 29.7239V29.7239Z" fill="#E6E6E6"/>
<path d="M55.2251 29.1078H27.9873C27.7116 29.1076 27.4472 29.011 27.2522 28.8395C27.0573 28.6679 26.9476 28.4352 26.9473 28.1926V21.3088C26.9476 21.0661 27.0573 20.8335 27.2522 20.6619C27.4472 20.4904 27.7116 20.3938 27.9873 20.3936H57.5304C57.8062 20.3938 58.0705 20.4904 58.2655 20.6619C58.4605 20.8335 58.5701 21.0661 58.5705 21.3088V26.1639C58.5695 26.9444 58.2167 27.6927 57.5895 28.2446C56.9624 28.7965 56.1121 29.107 55.2251 29.1078V29.1078Z" fill="white"/>
<path d="M45.8254 22.8403H33.3874C33.3162 22.8403 33.248 22.8154 33.1977 22.7711C33.1474 22.7269 33.1191 22.6668 33.1191 22.6042C33.1191 22.5416 33.1474 22.4816 33.1977 22.4373C33.248 22.393 33.3162 22.3682 33.3874 22.3682H45.8254C45.8966 22.3682 45.9648 22.393 46.0151 22.4373C46.0654 22.4816 46.0937 22.5416 46.0937 22.6042C46.0937 22.6668 46.0654 22.7269 46.0151 22.7711C45.9648 22.8154 45.8966 22.8403 45.8254 22.8403V22.8403Z" fill="#004AAD"/>
<path d="M52.1218 23.808H33.3874C33.3162 23.808 33.248 23.7832 33.1977 23.7389C33.1474 23.6946 33.1191 23.6346 33.1191 23.572C33.1191 23.5094 33.1474 23.4493 33.1977 23.4051C33.248 23.3608 33.3162 23.3359 33.3874 23.3359H52.1218C52.1929 23.3359 52.2612 23.3608 52.3115 23.4051C52.3618 23.4493 52.39 23.5094 52.39 23.572C52.39 23.6346 52.3618 23.6946 52.3115 23.7389C52.2612 23.7832 52.1929 23.808 52.1218 23.808Z" fill="#E6E6E6"/>
<path d="M52.1224 24.9164H33.3879C33.3527 24.9165 33.3177 24.9104 33.2851 24.8986C33.2525 24.8868 33.2229 24.8694 33.1979 24.8475C33.1729 24.8255 33.1531 24.7995 33.1396 24.7708C33.1261 24.7421 33.1191 24.7114 33.1191 24.6804C33.1191 24.6493 33.1261 24.6186 33.1396 24.5899C33.1531 24.5613 33.1729 24.5352 33.1979 24.5133C33.2229 24.4914 33.2525 24.474 33.2851 24.4622C33.3177 24.4503 33.3527 24.4443 33.3879 24.4443H52.1224C52.1934 24.4445 52.2615 24.4694 52.3117 24.5136C52.3618 24.5579 52.39 24.6179 52.39 24.6804C52.39 24.7429 52.3618 24.8029 52.3117 24.8471C52.2615 24.8914 52.1934 24.9163 52.1224 24.9164Z" fill="#E6E6E6"/>
<path d="M52.1224 26.0229H33.3879C33.3527 26.0229 33.3177 26.0169 33.2851 26.005C33.2525 25.9932 33.2229 25.9758 33.1979 25.9539C33.1729 25.932 33.1531 25.9059 33.1396 25.8773C33.1261 25.8486 33.1191 25.8179 33.1191 25.7868C33.1191 25.7558 33.1261 25.725 33.1396 25.6964C33.1531 25.6677 33.1729 25.6417 33.1979 25.6197C33.2229 25.5978 33.2525 25.5804 33.2851 25.5686C33.3177 25.5568 33.3527 25.5507 33.3879 25.5508H52.1224C52.1934 25.5509 52.2615 25.5758 52.3117 25.6201C52.3618 25.6643 52.39 25.7243 52.39 25.7868C52.39 25.8493 52.3618 25.9093 52.3117 25.9536C52.2615 25.9978 52.1934 26.0227 52.1224 26.0229Z" fill="#E6E6E6"/>
<path d="M52.1224 27.1322H33.3879C33.3527 27.1323 33.3177 27.1263 33.2851 27.1144C33.2525 27.1026 33.2229 27.0852 33.1979 27.0633C33.1729 27.0414 33.1531 27.0153 33.1396 26.9866C33.1261 26.958 33.1191 26.9272 33.1191 26.8962C33.1191 26.8652 33.1261 26.8344 33.1396 26.8058C33.1531 26.7771 33.1729 26.751 33.1979 26.7291C33.2229 26.7072 33.2525 26.6898 33.2851 26.678C33.3177 26.6661 33.3527 26.6601 33.3879 26.6602H52.1224C52.1934 26.6603 52.2615 26.6852 52.3117 26.7295C52.3618 26.7737 52.39 26.8337 52.39 26.8962C52.39 26.9587 52.3618 27.0187 52.3117 27.0629C52.2615 27.1072 52.1934 27.1321 52.1224 27.1322V27.1322Z" fill="#E6E6E6"/>
<path d="M68.5818 63.6668L67.3246 63.6667L66.7266 59.3994L68.5821 59.3995L68.5818 63.6668Z" fill="#A0616A"/>
<path d="M68.6258 64.8202L64.7598 64.8201V64.7771C64.7598 64.4259 64.9183 64.0891 65.2005 63.8408C65.4827 63.5924 65.8654 63.4529 66.2645 63.4529H66.2646L66.9708 62.9814L68.2883 63.453L68.6258 63.453L68.6258 64.8202Z" fill="#2F2E41"/>
<path d="M78.862 62.2486L77.7356 62.7396L75.0469 59.1496L76.7095 58.4248L78.862 62.2486Z" fill="#A0616A"/>
<path d="M79.4821 63.2662L76.0179 64.7764L75.9962 64.7379C75.8191 64.4232 75.7912 64.0595 75.9188 63.7267C76.0464 63.3939 76.3189 63.1194 76.6765 62.9635L76.6766 62.9634L77.0715 62.2651L78.49 62.1729L78.7924 62.041L79.4821 63.2662Z" fill="#2F2E41"/>
<path d="M64.8606 40.7285C64.8606 40.7285 63.4295 42.4841 64.4625 45.5171C65.4954 48.5502 64.9155 51.2618 65.2055 51.8056C65.4954 52.3493 66.0791 52.8657 65.5968 53.2779C65.1145 53.6902 64.8606 54.0254 65.2415 54.1371C65.6224 54.2489 66.8922 62.0706 66.8922 62.0706L69.0507 62.1823C69.0507 62.1823 69.8327 58.5489 68.9973 55.6167C68.9973 55.6167 69.1807 53.4881 68.7983 52.8628C68.4158 52.2376 68.4908 52.8015 68.5168 52.0167C68.5312 51.4491 68.6252 50.8853 68.7968 50.338C68.9237 49.8911 68.9973 45.3863 68.9973 45.3863L71.0986 51.3642C71.1829 51.5702 71.2145 51.79 71.1913 52.0079C71.1393 52.3159 71.1388 52.776 71.2025 52.937C71.2663 53.098 71.3372 53.1319 71.3017 53.4502C71.2663 53.7685 75.4954 60.4779 75.4954 60.4779L77.5967 59.2374L75.5264 53.355C75.3208 53.1545 75.1497 52.9286 75.0185 52.6845C74.7646 52.2376 74.7547 52.2129 74.8866 51.89C75.0185 51.5671 75.0185 50.9381 75.0185 50.7498C75.0185 50.5615 75.1504 42.0138 73.4973 40.7566C71.8442 39.4993 64.8606 40.7285 64.8606 40.7285Z" fill="#2F2E41"/>
<path d="M72.6218 27.13L72.1916 26.0525L71.0168 25.0187L68.8499 24.791L67.4392 25.6072L66.1327 26.7406L64.2031 40.836C64.2031 40.836 73.3173 43.9283 74.5115 41.3331L72.6218 27.13Z" fill="#CCCCCC"/>
<path d="M73.3584 27.1306L72.0924 26.0166C72.0924 26.0166 71.4877 33.1366 71.7453 33.6374C72.0029 34.1382 72.3063 34.0104 71.9784 34.281C71.6505 34.5517 71.2981 34.2831 71.6505 34.7792C71.8582 35.0574 71.9601 35.3865 71.9415 35.7189C71.9415 35.7189 73.7651 45.8202 74.8224 45.8202C75.8797 45.8202 76.5416 45.5479 76.5043 45.2705C76.4671 44.9932 75.8434 44.3026 76.0377 44.131C76.2321 43.9594 76.7112 44.089 76.2367 43.7657C75.7622 43.4425 75.5272 43.5458 75.6447 43.1323C75.7622 42.7188 74.8641 37.358 74.8641 37.358L74.7765 28.4038L73.3584 27.1306Z" fill="#3F3D56"/>
<path d="M67.4414 25.6074L65.8019 25.8116L63.8529 26.4663C63.8529 26.4663 64.7431 35.3035 64.5572 35.5994C64.3714 35.8953 64.0411 35.7105 64.3237 36.0096C64.6063 36.3088 64.8605 36.1761 64.5572 36.4492C64.2539 36.7223 63.7433 36.3764 64.0573 36.8595C64.3713 37.3426 62.858 43.9944 63.2655 44.3512C63.673 44.708 64.7229 44.486 64.7233 44.2225C64.6912 43.9385 64.5693 43.6681 64.3714 43.4421C64.3145 43.3848 64.2832 43.3114 64.2832 43.2353C64.2832 43.1593 64.3145 43.0858 64.3714 43.0286C64.5378 42.8877 64.6522 42.7059 64.6994 42.5069C64.7238 42.3049 64.9032 42.0566 64.9897 41.8706C65.0762 41.6846 67.2545 29.0937 67.2545 29.0937L67.4414 25.6074Z" fill="#3F3D56"/>
<path d="M60.4407 32.5667L61.1801 32.2269C60.2569 31.4941 57.9663 30.2952 57.9663 30.2952L54.0183 27.9529C53.9605 27.8332 53.8679 27.729 53.7498 27.6508C53.6317 27.5725 53.4922 27.5231 53.3455 27.5074C53.1987 27.4917 53.0499 27.5102 52.9139 27.5612C52.7779 27.6123 52.6596 27.6939 52.5708 27.7979C52.4821 27.902 52.4261 28.0247 52.4084 28.1539C52.3907 28.2831 52.412 28.414 52.4701 28.5336C52.5282 28.6533 52.6212 28.7573 52.7395 28.8353C52.8578 28.9132 52.9974 28.9624 53.1442 28.9778L57.5685 32.466L60.4407 32.5667Z" fill="#A0616A"/>
<path d="M65.8438 29.9801L65.8518 27.1233L64.0484 26.3643L59.5 30.6004L59.1476 30.3936H58.3252L56.3281 32.4612C56.3281 32.4612 57.3918 33.0159 57.9173 32.7903C58.4427 32.5646 58.3933 32.8889 58.3933 32.8889C58.4713 32.9751 58.58 33.0358 58.7019 33.061C58.8238 33.0862 58.9518 33.0746 59.0653 33.028C59.5 32.8747 60.3223 33.2883 60.3223 33.2883L65.8438 29.9801Z" fill="#3F3D56"/>
<path d="M70.167 24.1355C71.6194 24.1355 72.7969 23.0993 72.7969 21.8212C72.7969 20.543 71.6194 19.5068 70.167 19.5068C68.7145 19.5068 67.5371 20.543 67.5371 21.8212C67.5371 23.0993 68.7145 24.1355 70.167 24.1355Z" fill="#A0616A"/>
<path d="M73.3369 22.4085C73.0886 22.8361 72.7554 23.2211 72.353 23.5454C72.2375 23.6609 72.0901 23.7484 71.925 23.7994C71.8421 23.8232 71.7522 23.8206 71.6712 23.7921C71.5902 23.7637 71.523 23.7111 71.4815 23.6435L71.4328 23.5849C71.5737 23.547 71.7067 23.4891 71.8265 23.4136C71.886 23.3755 71.9343 23.3255 71.9674 23.2678C72.0005 23.21 72.0175 23.146 72.0169 23.0813C72.0126 23.0166 71.98 22.9559 71.9259 22.912C71.8719 22.868 71.8005 22.8442 71.7269 22.8455C71.5626 22.8627 71.4158 23.0315 71.2686 22.9665C71.1497 22.9133 71.1667 22.761 71.2009 22.646C71.3839 22.0458 71.3073 21.1156 71.0439 21.0831C70.782 21.0362 70.5325 20.9463 70.3083 20.8182C70.0839 20.6898 69.8333 20.6011 69.5704 20.557C69.5514 20.5548 69.5322 20.5536 69.5118 20.5521C69.5043 20.4284 69.4798 20.3059 69.4389 20.1874C69.4103 20.3126 69.3667 20.4347 69.3087 20.5518C69.081 20.5791 68.851 20.5893 68.6213 20.5824C68.3765 20.5574 67.6729 21.0594 67.6676 20.9903C67.6601 20.8666 67.6356 20.7441 67.5947 20.6255C67.5661 20.7507 67.5225 20.8729 67.4645 20.9899C67.4619 20.9947 67.4607 20.9988 67.458 21.0035C67.3832 20.843 67.3618 20.6636 67.3636 20.7976C67.2066 19.9448 67.5181 19.4313 68.3134 18.9256C68.4723 18.814 68.6607 18.7398 68.8611 18.7099C68.9611 18.6958 69.0636 18.7047 69.1587 18.7356C69.2537 18.7665 69.3381 18.8184 69.4038 18.8863C69.7091 18.7442 70.0522 18.6765 70.3973 18.6902C70.7424 18.704 71.077 18.7987 71.3665 18.9646C71.9386 19.3019 72.3899 19.5263 72.3138 20.1294C72.856 20.1754 73.3141 20.5586 73.4854 21.0128C73.6553 21.4678 73.567 21.9754 73.3369 22.4085Z" fill="#2F2E41"/>
<path d="M76.6973 34.4654L74.8105 34.2275C74.1724 35.1665 73.9456 37.6658 73.9456 37.6658L72.0992 41.528C71.9769 41.6011 71.8786 41.7012 71.8143 41.8183C71.75 41.9355 71.7219 42.0655 71.7328 42.1952C71.7437 42.3249 71.7932 42.4498 71.8764 42.5574C71.9596 42.6649 72.0736 42.7512 72.2067 42.8077C72.3399 42.8642 72.4876 42.8888 72.635 42.879C72.7825 42.8693 72.9243 42.8255 73.0464 42.7521C73.1685 42.6788 73.2665 42.5784 73.3305 42.4612C73.3945 42.3439 73.4223 42.2139 73.411 42.0842L76.4428 37.5888L76.6973 34.4654Z" fill="#A0616A"/>
<path d="M72.3555 28.7093L73.1549 27.7402L74.7761 28.4032L76.1244 32.9802C76.1244 32.9802 77.109 33.544 76.899 33.9418C76.6889 34.3396 76.5772 34.6605 76.7944 34.8885C77.0115 35.1164 77.6439 35.1331 77.1728 35.5048C76.7018 35.8764 77.105 36.8474 77.105 36.8474L76.6536 37.734L73.8342 37.6306L72.3555 28.7093Z" fill="#3F3D56"/>
<path d="M7.14666 42.9039C7.32462 42.781 7.44108 42.6018 7.47125 42.4046C7.50141 42.2073 7.44291 42.0074 7.30819 41.8475C7.28022 41.8154 7.24928 41.7854 7.21569 41.7577L8.4196 39.3113L7.22389 38.3369L5.98642 41.8452C5.867 41.9766 5.8004 42.1392 5.79701 42.3075C5.79362 42.4757 5.85362 42.6403 5.96766 42.7754C6.03339 42.8517 6.11557 42.9159 6.20949 42.9643C6.30341 43.0127 6.40724 43.0443 6.51505 43.0574C6.62286 43.0705 6.73254 43.0647 6.83783 43.0405C6.94312 43.0163 7.04196 42.974 7.1287 42.9162C7.13475 42.9121 7.14074 42.908 7.14666 42.9039Z" fill="#FFB6B6"/>
<path d="M14.1404 27.0349C14.1404 27.0349 13.2492 25.544 11.1819 27.1541C9.11452 28.7641 6.67156 36.8232 6.719 37.1262C6.76644 37.4292 7.27174 37.3093 6.63261 37.7456C5.99348 38.1818 5.6401 37.7898 5.99348 38.1818C6.34686 38.5737 7.13712 38.9889 6.43741 39.0472C5.73769 39.1055 8.30277 40.0767 8.30277 40.0767C8.30277 40.0767 8.70623 39.9914 8.83001 39.1722C8.89954 38.7121 8.66395 38.4508 9.07866 38.3741C9.49337 38.2974 9.10465 37.4653 9.16435 37.3344C9.22405 37.2034 12.5354 31.485 12.5354 31.485L14.1404 27.0349Z" fill="#004AAD"/>
<path d="M18.2113 63.445L19.7082 63.4449L20.4204 58.3633L18.2109 58.3634L18.2113 63.445Z" fill="#FFB6B6"/>
<path d="M18.1563 64.8186L22.76 64.8184V64.7672C22.76 64.349 22.5712 63.9479 22.2351 63.6522C21.8991 63.3565 21.4434 63.1904 20.9681 63.1903H20.968L20.1271 62.6289L18.5581 63.1904L18.1562 63.1904L18.1563 64.8186Z" fill="#2F2E41"/>
<path d="M7.7207 61.0232L8.94528 61.7808L12.8495 57.9846L11.0419 56.8662L7.7207 61.0232Z" fill="#FFB6B6"/>
<path d="M6.77734 62.119L10.5433 64.4492L10.5768 64.4073C10.8501 64.0652 10.9578 63.6415 10.8762 63.2295C10.7946 62.8175 10.5304 62.4509 10.1417 62.2104L10.1416 62.2103L9.82069 61.3254L8.17023 60.9905L7.84149 60.7871L6.77734 62.119Z" fill="#2F2E41"/>
<path d="M12.2459 38.1633L12.1215 38.3971C11.3039 39.9343 11.0948 41.6527 11.4126 43.3268C11.4362 43.3921 11.4317 43.4628 11.3999 43.5254C11.2028 43.7288 11.512 44.6125 11.6892 45.106L11.8489 45.9785C11.8489 45.9785 11.5841 46.7889 11.9864 46.7294C12.3887 46.6698 11.7896 47.5342 12.1734 47.7508L13.1689 53.1889L9.01562 59.2127L10.5539 61.1755L16.7068 54.2042L16.7837 47.9096L17.7066 52.9859L17.7836 60.9725L20.582 60.7107L21.6073 52.9676L20.6293 42.2592L19.0911 37.6162L12.2459 38.1633Z" fill="#2F2E41"/>
<path d="M14.1685 24.2227L16.4324 24.3175L17.515 25.9634C17.9951 26.0901 18.4367 26.3101 18.8072 26.6072C19.1777 26.9042 19.4677 27.2707 19.6558 27.6795L20.3607 29.2122L19.5588 38.0738C19.5588 38.0738 19.3981 38.6098 19.694 38.5315C19.99 38.4533 19.8694 39.125 19.8694 39.125L20.9603 42.8173L11.0421 42.0584L11.5928 38.1463C11.5928 38.1463 10.8271 38.1681 11.3655 37.6943C11.9039 37.2205 12.1657 37.3714 11.6485 36.8113C11.1313 36.2512 11.0544 35.8451 11.0544 35.8451L10.8237 33.0701L10.4433 29.1647C10.383 28.545 10.4986 27.9218 10.7798 27.3512C11.061 26.7806 11.4989 26.2804 12.0543 25.8957V25.8957L14.1685 24.2227Z" fill="#004AAD"/>
<path d="M15.3437 23.7651C16.9294 23.7651 18.2148 22.6339 18.2148 21.2385C18.2148 19.8431 16.9294 18.7119 15.3437 18.7119C13.7581 18.7119 12.4727 19.8431 12.4727 21.2385C12.4727 22.6339 13.7581 23.7651 15.3437 23.7651Z" fill="#FFB6B6"/>
<path d="M14.2332 23.5599C15.0571 23.5361 15.1319 23.3446 15.9558 23.3208C16.2181 23.3132 16.5277 23.2816 16.6545 23.0794C16.6914 23.0036 16.7079 22.9213 16.7025 22.839C16.6972 22.7567 16.6702 22.6766 16.6238 22.6051C16.5298 22.463 16.445 22.3163 16.37 22.1657C16.3248 22.0476 16.3129 21.9216 16.3354 21.7986C16.3579 21.6756 16.4142 21.5592 16.4992 21.4596C16.5843 21.36 16.6957 21.2801 16.8237 21.2269C16.9517 21.1736 17.0925 21.1486 17.234 21.154C17.4847 21.1635 17.7202 21.2673 17.9702 21.2862C18.3131 21.3122 19.0714 20.3159 18.9135 20.0468C18.7598 19.7848 18.4505 19.5872 18.4019 19.2955C18.3701 19.1047 18.4596 18.9151 18.4719 18.7226C18.49 18.4371 17.6677 19.0808 17.8183 18.8274C18.1877 18.206 14.7067 17.4355 14.1336 18.214C13.9194 18.5049 13.5377 18.4851 13.1974 18.6598C12.9745 18.7743 12.4114 19.1694 12.2834 19.4156C12.1658 19.6669 12.1102 19.9373 12.1203 20.2089C12.1152 21.472 12.3338 22.6339 13.4916 23.3805" fill="#2F2E41"/>
<path d="M22.3883 42.7972C22.219 42.6652 22.1149 42.4803 22.0982 42.2818C22.0814 42.0833 22.1534 41.8868 22.2987 41.7343C22.3288 41.7037 22.3617 41.6753 22.3971 41.6495L21.3613 39.1442L22.621 38.2344L23.6183 41.8014C23.7286 41.9389 23.784 42.1047 23.776 42.2728C23.768 42.441 23.6969 42.602 23.5739 42.7309C23.5031 42.8037 23.4167 42.8634 23.3197 42.9068C23.2227 42.9502 23.1169 42.9763 23.0084 42.9837C22.8999 42.9911 22.7908 42.9796 22.6873 42.9499C22.5838 42.9201 22.488 42.8728 22.4054 42.8105C22.3996 42.8061 22.3939 42.8017 22.3883 42.7972Z" fill="#FFB6B6"/>
<path d="M16.4805 26.586C16.4805 26.586 17.4712 25.1446 19.4256 26.8604C21.3801 28.5762 23.272 36.7492 23.2041 37.0491C23.1362 37.3491 22.6399 37.2029 23.2483 37.6719C23.8567 38.1409 24.2361 37.7683 23.8567 38.1409C23.4774 38.5136 22.6604 38.8866 23.3549 38.9815C24.0494 39.0765 21.423 39.9112 21.423 39.9112C21.423 39.9112 21.026 39.8049 20.9581 38.9806C20.9199 38.5176 21.1728 38.2692 20.764 38.1709C20.3552 38.0725 20.7997 37.2623 20.749 37.1285C20.6983 36.9946 17.7807 31.1124 17.7807 31.1124L16.4805 26.586Z" fill="#004AAD"/>
<path d="M45.0518 12.8459C45.0519 13.255 44.9142 13.6549 44.6561 13.995C44.3979 14.3352 44.031 14.6003 43.6016 14.757C43.1722 14.9136 42.6997 14.9547 42.2438 14.875C41.7879 14.7953 41.3691 14.5984 41.0403 14.3092C40.7116 14.0201 40.4876 13.6516 40.3968 13.2504C40.306 12.8493 40.3525 12.4334 40.5302 12.0555C40.708 11.6776 41.0091 11.3545 41.3955 11.1272C41.782 10.8998 42.2363 10.7784 42.7011 10.7783C43.0098 10.778 43.3156 10.8312 43.6009 10.935C43.8862 11.0387 44.1455 11.191 44.3638 11.383C44.5822 11.5751 44.7553 11.8032 44.8734 12.0542C44.9914 12.3052 45.0521 12.5743 45.0518 12.8459V12.8459Z" fill="#004AAD"/>
<path d="M42.7481 13.1466C43.2023 13.1466 43.5705 12.8226 43.5705 12.4229C43.5705 12.0232 43.2023 11.6992 42.7481 11.6992C42.294 11.6992 41.9258 12.0232 41.9258 12.4229C41.9258 12.8226 42.294 13.1466 42.7481 13.1466Z" fill="white"/>
<path d="M43.6304 13.4043H41.8682C41.7592 13.4044 41.6547 13.4426 41.5776 13.5104C41.5005 13.5782 41.4572 13.6702 41.457 13.7661C41.4821 14.076 41.5371 14.3835 41.6215 14.6852C41.9749 14.8454 42.3688 14.9241 42.7661 14.9138C43.1635 14.9035 43.5514 14.8046 43.8935 14.6263C43.9689 14.3435 44.0184 14.0559 44.0415 13.7661C44.0414 13.6702 43.998 13.5782 43.921 13.5104C43.8439 13.4426 43.7394 13.4044 43.6304 13.4043V13.4043Z" fill="white"/>
<path d="M0.59961 64.8769C0.599555 64.8931 0.603135 64.9091 0.610141 64.9241C0.617148 64.939 0.627442 64.9526 0.640435 64.964C0.653428 64.9755 0.668863 64.9845 0.68585 64.9907C0.702836 64.9969 0.721041 65 0.739415 64.9999H84.7694C84.8065 64.9999 84.8421 64.987 84.8683 64.9639C84.8945 64.9408 84.9092 64.9096 84.9092 64.8769C84.9092 64.8443 84.8945 64.813 84.8683 64.7899C84.8421 64.7669 84.8065 64.7539 84.7694 64.7539H0.739415C0.721041 64.7539 0.702836 64.757 0.68585 64.7632C0.668864 64.7693 0.65343 64.7784 0.640437 64.7898C0.627444 64.8013 0.617148 64.8148 0.610141 64.8298C0.603135 64.8447 0.599556 64.8608 0.59961 64.8769Z" fill="#CCCCCC"/>
</svg>
