<svg width="368" height="298" viewBox="0 0 368 298" fill="none" xmlns="http://www.w3.org/2000/svg">
<g clip-path="url(#clip0_1075_5277)">
<path d="M367.459 297.968H246.35V296.979H367.638L367.459 297.968Z" fill="#3F3D56"/>
<path d="M3.20152 6.40304C4.96967 6.40304 6.40304 4.96967 6.40304 3.20152C6.40304 1.43337 4.96967 0 3.20152 0C1.43337 0 0 1.43337 0 3.20152C0 4.96967 1.43337 6.40304 3.20152 6.40304Z" fill="#E6E6E6"/>
<path d="M19.4066 6.40304C21.1747 6.40304 22.6081 4.96967 22.6081 3.20152C22.6081 1.43337 21.1747 0 19.4066 0C17.6384 0 16.2051 1.43337 16.2051 3.20152C16.2051 4.96967 17.6384 6.40304 19.4066 6.40304Z" fill="#E6E6E6"/>
<path d="M35.6117 6.40304C37.3798 6.40304 38.8132 4.96967 38.8132 3.20152C38.8132 1.43337 37.3798 0 35.6117 0C33.8435 0 32.4102 1.43337 32.4102 3.20152C32.4102 4.96967 33.8435 6.40304 35.6117 6.40304Z" fill="#E6E6E6"/>
<path d="M51.8168 6.40304C53.5849 6.40304 55.0183 4.96967 55.0183 3.20152C55.0183 1.43337 53.5849 0 51.8168 0C50.0486 0 48.6152 1.43337 48.6152 3.20152C48.6152 4.96967 50.0486 6.40304 51.8168 6.40304Z" fill="#E6E6E6"/>
<path d="M68.0238 6.40304C69.7919 6.40304 71.2253 4.96967 71.2253 3.20152C71.2253 1.43337 69.7919 0 68.0238 0C66.2556 0 64.8223 1.43337 64.8223 3.20152C64.8223 4.96967 66.2556 6.40304 68.0238 6.40304Z" fill="#E6E6E6"/>
<path d="M84.2328 6.40304C86.0009 6.40304 87.4343 4.96967 87.4343 3.20152C87.4343 1.43337 86.0009 0 84.2328 0C82.4646 0 81.0312 1.43337 81.0312 3.20152C81.0312 4.96967 82.4646 6.40304 84.2328 6.40304Z" fill="#E6E6E6"/>
<path d="M100.438 6.40304C102.206 6.40304 103.639 4.96967 103.639 3.20152C103.639 1.43337 102.206 0 100.438 0C98.6697 0 97.2363 1.43337 97.2363 3.20152C97.2363 4.96967 98.6697 6.40304 100.438 6.40304Z" fill="#E6E6E6"/>
<path d="M116.643 6.40304C118.411 6.40304 119.844 4.96967 119.844 3.20152C119.844 1.43337 118.411 0 116.643 0C114.875 0 113.441 1.43337 113.441 3.20152C113.441 4.96967 114.875 6.40304 116.643 6.40304Z" fill="#E6E6E6"/>
<path d="M132.852 6.40304C134.62 6.40304 136.053 4.96967 136.053 3.20152C136.053 1.43337 134.62 0 132.852 0C131.084 0 129.65 1.43337 129.65 3.20152C129.65 4.96967 131.084 6.40304 132.852 6.40304Z" fill="#E6E6E6"/>
<path d="M149.055 6.40304C150.823 6.40304 152.257 4.96967 152.257 3.20152C152.257 1.43337 150.823 0 149.055 0C147.287 0 145.854 1.43337 145.854 3.20152C145.854 4.96967 147.287 6.40304 149.055 6.40304Z" fill="#E6E6E6"/>
<path d="M3.20152 22.8122C4.96967 22.8122 6.40304 21.3789 6.40304 19.6107C6.40304 17.8425 4.96967 16.4092 3.20152 16.4092C1.43337 16.4092 0 17.8425 0 19.6107C0 21.3789 1.43337 22.8122 3.20152 22.8122Z" fill="#E6E6E6"/>
<path d="M19.4066 22.8122C21.1747 22.8122 22.6081 21.3789 22.6081 19.6107C22.6081 17.8425 21.1747 16.4092 19.4066 16.4092C17.6384 16.4092 16.2051 17.8425 16.2051 19.6107C16.2051 21.3789 17.6384 22.8122 19.4066 22.8122Z" fill="#E6E6E6"/>
<path d="M35.6117 22.8122C37.3798 22.8122 38.8132 21.3789 38.8132 19.6107C38.8132 17.8425 37.3798 16.4092 35.6117 16.4092C33.8435 16.4092 32.4102 17.8425 32.4102 19.6107C32.4102 21.3789 33.8435 22.8122 35.6117 22.8122Z" fill="#E6E6E6"/>
<path d="M51.8168 22.8122C53.5849 22.8122 55.0183 21.3789 55.0183 19.6107C55.0183 17.8425 53.5849 16.4092 51.8168 16.4092C50.0486 16.4092 48.6152 17.8425 48.6152 19.6107C48.6152 21.3789 50.0486 22.8122 51.8168 22.8122Z" fill="#6C63FF"/>
<path d="M68.0238 22.8122C69.7919 22.8122 71.2253 21.3789 71.2253 19.6107C71.2253 17.8425 69.7919 16.4092 68.0238 16.4092C66.2556 16.4092 64.8223 17.8425 64.8223 19.6107C64.8223 21.3789 66.2556 22.8122 68.0238 22.8122Z" fill="#E6E6E6"/>
<path d="M84.2328 22.8122C86.0009 22.8122 87.4343 21.3789 87.4343 19.6107C87.4343 17.8425 86.0009 16.4092 84.2328 16.4092C82.4646 16.4092 81.0312 17.8425 81.0312 19.6107C81.0312 21.3789 82.4646 22.8122 84.2328 22.8122Z" fill="#E6E6E6"/>
<path d="M100.438 22.8122C102.206 22.8122 103.639 21.3789 103.639 19.6107C103.639 17.8425 102.206 16.4092 100.438 16.4092C98.6697 16.4092 97.2363 17.8425 97.2363 19.6107C97.2363 21.3789 98.6697 22.8122 100.438 22.8122Z" fill="#E6E6E6"/>
<path d="M116.643 22.8122C118.411 22.8122 119.844 21.3789 119.844 19.6107C119.844 17.8425 118.411 16.4092 116.643 16.4092C114.875 16.4092 113.441 17.8425 113.441 19.6107C113.441 21.3789 114.875 22.8122 116.643 22.8122Z" fill="#E6E6E6"/>
<path d="M132.852 22.8122C134.62 22.8122 136.053 21.3789 136.053 19.6107C136.053 17.8425 134.62 16.4092 132.852 16.4092C131.084 16.4092 129.65 17.8425 129.65 19.6107C129.65 21.3789 131.084 22.8122 132.852 22.8122Z" fill="#E6E6E6"/>
<path d="M149.055 22.8122C150.823 22.8122 152.257 21.3789 152.257 19.6107C152.257 17.8425 150.823 16.4092 149.055 16.4092C147.287 16.4092 145.854 17.8425 145.854 19.6107C145.854 21.3789 147.287 22.8122 149.055 22.8122Z" fill="#E6E6E6"/>
<path d="M3.20152 39.2204C4.96967 39.2204 6.40304 37.7871 6.40304 36.0189C6.40304 34.2508 4.96967 32.8174 3.20152 32.8174C1.43337 32.8174 0 34.2508 0 36.0189C0 37.7871 1.43337 39.2204 3.20152 39.2204Z" fill="#E6E6E6"/>
<path d="M19.4066 39.2204C21.1747 39.2204 22.6081 37.7871 22.6081 36.0189C22.6081 34.2508 21.1747 32.8174 19.4066 32.8174C17.6384 32.8174 16.2051 34.2508 16.2051 36.0189C16.2051 37.7871 17.6384 39.2204 19.4066 39.2204Z" fill="#E6E6E6"/>
<path d="M35.6117 39.2204C37.3798 39.2204 38.8132 37.7871 38.8132 36.0189C38.8132 34.2508 37.3798 32.8174 35.6117 32.8174C33.8435 32.8174 32.4102 34.2508 32.4102 36.0189C32.4102 37.7871 33.8435 39.2204 35.6117 39.2204Z" fill="#E6E6E6"/>
<path d="M51.8168 39.2204C53.5849 39.2204 55.0183 37.7871 55.0183 36.0189C55.0183 34.2508 53.5849 32.8174 51.8168 32.8174C50.0486 32.8174 48.6152 34.2508 48.6152 36.0189C48.6152 37.7871 50.0486 39.2204 51.8168 39.2204Z" fill="#E6E6E6"/>
<path d="M68.0238 39.2204C69.7919 39.2204 71.2253 37.7871 71.2253 36.0189C71.2253 34.2508 69.7919 32.8174 68.0238 32.8174C66.2556 32.8174 64.8223 34.2508 64.8223 36.0189C64.8223 37.7871 66.2556 39.2204 68.0238 39.2204Z" fill="#E6E6E6"/>
<path d="M84.2328 39.2204C86.0009 39.2204 87.4343 37.7871 87.4343 36.0189C87.4343 34.2508 86.0009 32.8174 84.2328 32.8174C82.4646 32.8174 81.0312 34.2508 81.0312 36.0189C81.0312 37.7871 82.4646 39.2204 84.2328 39.2204Z" fill="#E6E6E6"/>
<path d="M100.438 39.2204C102.206 39.2204 103.639 37.7871 103.639 36.0189C103.639 34.2508 102.206 32.8174 100.438 32.8174C98.6697 32.8174 97.2363 34.2508 97.2363 36.0189C97.2363 37.7871 98.6697 39.2204 100.438 39.2204Z" fill="#E6E6E6"/>
<path d="M116.643 39.2204C118.411 39.2204 119.844 37.7871 119.844 36.0189C119.844 34.2508 118.411 32.8174 116.643 32.8174C114.875 32.8174 113.441 34.2508 113.441 36.0189C113.441 37.7871 114.875 39.2204 116.643 39.2204Z" fill="#E6E6E6"/>
<path d="M132.852 39.2204C134.62 39.2204 136.053 37.7871 136.053 36.0189C136.053 34.2508 134.62 32.8174 132.852 32.8174C131.084 32.8174 129.65 34.2508 129.65 36.0189C129.65 37.7871 131.084 39.2204 132.852 39.2204Z" fill="#E6E6E6"/>
<path d="M149.055 39.2204C150.823 39.2204 152.257 37.7871 152.257 36.0189C152.257 34.2508 150.823 32.8174 149.055 32.8174C147.287 32.8174 145.854 34.2508 145.854 36.0189C145.854 37.7871 147.287 39.2204 149.055 39.2204Z" fill="#E6E6E6"/>
<path d="M3.20152 55.6316C4.96967 55.6316 6.40304 54.1982 6.40304 52.43C6.40304 50.6619 4.96967 49.2285 3.20152 49.2285C1.43337 49.2285 0 50.6619 0 52.43C0 54.1982 1.43337 55.6316 3.20152 55.6316Z" fill="#E6E6E6"/>
<path d="M19.4066 55.6316C21.1747 55.6316 22.6081 54.1982 22.6081 52.43C22.6081 50.6619 21.1747 49.2285 19.4066 49.2285C17.6384 49.2285 16.2051 50.6619 16.2051 52.43C16.2051 54.1982 17.6384 55.6316 19.4066 55.6316Z" fill="#E6E6E6"/>
<path d="M35.6117 55.6316C37.3798 55.6316 38.8132 54.1982 38.8132 52.43C38.8132 50.6619 37.3798 49.2285 35.6117 49.2285C33.8435 49.2285 32.4102 50.6619 32.4102 52.43C32.4102 54.1982 33.8435 55.6316 35.6117 55.6316Z" fill="#E6E6E6"/>
<path d="M51.8168 55.6316C53.5849 55.6316 55.0183 54.1982 55.0183 52.43C55.0183 50.6619 53.5849 49.2285 51.8168 49.2285C50.0486 49.2285 48.6152 50.6619 48.6152 52.43C48.6152 54.1982 50.0486 55.6316 51.8168 55.6316Z" fill="#E6E6E6"/>
<path d="M68.0238 55.6316C69.7919 55.6316 71.2253 54.1982 71.2253 52.43C71.2253 50.6619 69.7919 49.2285 68.0238 49.2285C66.2556 49.2285 64.8223 50.6619 64.8223 52.43C64.8223 54.1982 66.2556 55.6316 68.0238 55.6316Z" fill="#E6E6E6"/>
<path d="M84.2328 55.6316C86.0009 55.6316 87.4343 54.1982 87.4343 52.43C87.4343 50.6619 86.0009 49.2285 84.2328 49.2285C82.4646 49.2285 81.0312 50.6619 81.0312 52.43C81.0312 54.1982 82.4646 55.6316 84.2328 55.6316Z" fill="#E6E6E6"/>
<path d="M100.438 55.6316C102.206 55.6316 103.639 54.1982 103.639 52.43C103.639 50.6619 102.206 49.2285 100.438 49.2285C98.6697 49.2285 97.2363 50.6619 97.2363 52.43C97.2363 54.1982 98.6697 55.6316 100.438 55.6316Z" fill="#E6E6E6"/>
<path d="M116.643 55.6316C118.411 55.6316 119.844 54.1982 119.844 52.43C119.844 50.6619 118.411 49.2285 116.643 49.2285C114.875 49.2285 113.441 50.6619 113.441 52.43C113.441 54.1982 114.875 55.6316 116.643 55.6316Z" fill="#E6E6E6"/>
<path d="M132.852 55.6316C134.62 55.6316 136.053 54.1982 136.053 52.43C136.053 50.6619 134.62 49.2285 132.852 49.2285C131.084 49.2285 129.65 50.6619 129.65 52.43C129.65 54.1982 131.084 55.6316 132.852 55.6316Z" fill="#E6E6E6"/>
<path d="M149.055 55.6316C150.823 55.6316 152.257 54.1982 152.257 52.43C152.257 50.6619 150.823 49.2285 149.055 49.2285C147.287 49.2285 145.854 50.6619 145.854 52.43C145.854 54.1982 147.287 55.6316 149.055 55.6316Z" fill="#E6E6E6"/>
<path d="M3.20152 72.0407C4.96967 72.0407 6.40304 70.6074 6.40304 68.8392C6.40304 67.0711 4.96967 65.6377 3.20152 65.6377C1.43337 65.6377 0 67.0711 0 68.8392C0 70.6074 1.43337 72.0407 3.20152 72.0407Z" fill="#E6E6E6"/>
<path d="M19.4066 72.0407C21.1747 72.0407 22.6081 70.6074 22.6081 68.8392C22.6081 67.0711 21.1747 65.6377 19.4066 65.6377C17.6384 65.6377 16.2051 67.0711 16.2051 68.8392C16.2051 70.6074 17.6384 72.0407 19.4066 72.0407Z" fill="#6C63FF"/>
<path d="M35.6117 72.0407C37.3798 72.0407 38.8132 70.6074 38.8132 68.8392C38.8132 67.0711 37.3798 65.6377 35.6117 65.6377C33.8435 65.6377 32.4102 67.0711 32.4102 68.8392C32.4102 70.6074 33.8435 72.0407 35.6117 72.0407Z" fill="#E6E6E6"/>
<path d="M51.8168 72.0407C53.5849 72.0407 55.0183 70.6074 55.0183 68.8392C55.0183 67.0711 53.5849 65.6377 51.8168 65.6377C50.0486 65.6377 48.6152 67.0711 48.6152 68.8392C48.6152 70.6074 50.0486 72.0407 51.8168 72.0407Z" fill="#E6E6E6"/>
<path d="M68.0238 72.0407C69.7919 72.0407 71.2253 70.6074 71.2253 68.8392C71.2253 67.0711 69.7919 65.6377 68.0238 65.6377C66.2556 65.6377 64.8223 67.0711 64.8223 68.8392C64.8223 70.6074 66.2556 72.0407 68.0238 72.0407Z" fill="#E6E6E6"/>
<path d="M84.2328 72.0407C86.0009 72.0407 87.4343 70.6074 87.4343 68.8392C87.4343 67.0711 86.0009 65.6377 84.2328 65.6377C82.4646 65.6377 81.0312 67.0711 81.0312 68.8392C81.0312 70.6074 82.4646 72.0407 84.2328 72.0407Z" fill="#E6E6E6"/>
<path d="M100.438 72.0407C102.206 72.0407 103.639 70.6074 103.639 68.8392C103.639 67.0711 102.206 65.6377 100.438 65.6377C98.6697 65.6377 97.2363 67.0711 97.2363 68.8392C97.2363 70.6074 98.6697 72.0407 100.438 72.0407Z" fill="#E6E6E6"/>
<path d="M116.643 72.0407C118.411 72.0407 119.844 70.6074 119.844 68.8392C119.844 67.0711 118.411 65.6377 116.643 65.6377C114.875 65.6377 113.441 67.0711 113.441 68.8392C113.441 70.6074 114.875 72.0407 116.643 72.0407Z" fill="#E6E6E6"/>
<path d="M132.852 72.0407C134.62 72.0407 136.053 70.6074 136.053 68.8392C136.053 67.0711 134.62 65.6377 132.852 65.6377C131.084 65.6377 129.65 67.0711 129.65 68.8392C129.65 70.6074 131.084 72.0407 132.852 72.0407Z" fill="#E6E6E6"/>
<path d="M149.055 72.0407C150.823 72.0407 152.257 70.6074 152.257 68.8392C152.257 67.0711 150.823 65.6377 149.055 65.6377C147.287 65.6377 145.854 67.0711 145.854 68.8392C145.854 70.6074 147.287 72.0407 149.055 72.0407Z" fill="#E6E6E6"/>
<path d="M3.20152 88.4509C4.96967 88.4509 6.40304 87.0175 6.40304 85.2494C6.40304 83.4812 4.96967 82.0479 3.20152 82.0479C1.43337 82.0479 0 83.4812 0 85.2494C0 87.0175 1.43337 88.4509 3.20152 88.4509Z" fill="#E6E6E6"/>
<path d="M19.4066 88.4509C21.1747 88.4509 22.6081 87.0175 22.6081 85.2494C22.6081 83.4812 21.1747 82.0479 19.4066 82.0479C17.6384 82.0479 16.2051 83.4812 16.2051 85.2494C16.2051 87.0175 17.6384 88.4509 19.4066 88.4509Z" fill="#E6E6E6"/>
<path d="M35.6117 88.4509C37.3798 88.4509 38.8132 87.0175 38.8132 85.2494C38.8132 83.4812 37.3798 82.0479 35.6117 82.0479C33.8435 82.0479 32.4102 83.4812 32.4102 85.2494C32.4102 87.0175 33.8435 88.4509 35.6117 88.4509Z" fill="#E6E6E6"/>
<path d="M51.8168 88.4509C53.5849 88.4509 55.0183 87.0175 55.0183 85.2494C55.0183 83.4812 53.5849 82.0479 51.8168 82.0479C50.0486 82.0479 48.6152 83.4812 48.6152 85.2494C48.6152 87.0175 50.0486 88.4509 51.8168 88.4509Z" fill="#E6E6E6"/>
<path d="M68.0238 88.4509C69.7919 88.4509 71.2253 87.0175 71.2253 85.2494C71.2253 83.4812 69.7919 82.0479 68.0238 82.0479C66.2556 82.0479 64.8223 83.4812 64.8223 85.2494C64.8223 87.0175 66.2556 88.4509 68.0238 88.4509Z" fill="#E6E6E6"/>
<path d="M84.2328 88.4509C86.0009 88.4509 87.4343 87.0175 87.4343 85.2494C87.4343 83.4812 86.0009 82.0479 84.2328 82.0479C82.4646 82.0479 81.0312 83.4812 81.0312 85.2494C81.0312 87.0175 82.4646 88.4509 84.2328 88.4509Z" fill="#E6E6E6"/>
<path d="M100.438 88.4509C102.206 88.4509 103.639 87.0175 103.639 85.2494C103.639 83.4812 102.206 82.0479 100.438 82.0479C98.6697 82.0479 97.2363 83.4812 97.2363 85.2494C97.2363 87.0175 98.6697 88.4509 100.438 88.4509Z" fill="#E6E6E6"/>
<path d="M116.643 88.4509C118.411 88.4509 119.844 87.0175 119.844 85.2494C119.844 83.4812 118.411 82.0479 116.643 82.0479C114.875 82.0479 113.441 83.4812 113.441 85.2494C113.441 87.0175 114.875 88.4509 116.643 88.4509Z" fill="#E6E6E6"/>
<path d="M132.852 88.4509C134.62 88.4509 136.053 87.0175 136.053 85.2494C136.053 83.4812 134.62 82.0479 132.852 82.0479C131.084 82.0479 129.65 83.4812 129.65 85.2494C129.65 87.0175 131.084 88.4509 132.852 88.4509Z" fill="#E6E6E6"/>
<path d="M149.055 88.4509C150.823 88.4509 152.257 87.0175 152.257 85.2494C152.257 83.4812 150.823 82.0479 149.055 82.0479C147.287 82.0479 145.854 83.4812 145.854 85.2494C145.854 87.0175 147.287 88.4509 149.055 88.4509Z" fill="#E6E6E6"/>
<path d="M3.20152 104.861C4.96967 104.861 6.40304 103.428 6.40304 101.66C6.40304 99.8914 4.96967 98.458 3.20152 98.458C1.43337 98.458 0 99.8914 0 101.66C0 103.428 1.43337 104.861 3.20152 104.861Z" fill="#E6E6E6"/>
<path d="M19.4066 104.861C21.1747 104.861 22.6081 103.428 22.6081 101.66C22.6081 99.8914 21.1747 98.458 19.4066 98.458C17.6384 98.458 16.2051 99.8914 16.2051 101.66C16.2051 103.428 17.6384 104.861 19.4066 104.861Z" fill="#E6E6E6"/>
<path d="M35.6117 104.861C37.3798 104.861 38.8132 103.428 38.8132 101.66C38.8132 99.8914 37.3798 98.458 35.6117 98.458C33.8435 98.458 32.4102 99.8914 32.4102 101.66C32.4102 103.428 33.8435 104.861 35.6117 104.861Z" fill="#6C63FF"/>
<path d="M51.8168 104.861C53.5849 104.861 55.0183 103.428 55.0183 101.66C55.0183 99.8914 53.5849 98.458 51.8168 98.458C50.0486 98.458 48.6152 99.8914 48.6152 101.66C48.6152 103.428 50.0486 104.861 51.8168 104.861Z" fill="#E6E6E6"/>
<path d="M68.0238 104.861C69.7919 104.861 71.2253 103.428 71.2253 101.66C71.2253 99.8914 69.7919 98.458 68.0238 98.458C66.2556 98.458 64.8223 99.8914 64.8223 101.66C64.8223 103.428 66.2556 104.861 68.0238 104.861Z" fill="#E6E6E6"/>
<path d="M84.2328 104.861C86.0009 104.861 87.4343 103.428 87.4343 101.66C87.4343 99.8914 86.0009 98.458 84.2328 98.458C82.4646 98.458 81.0312 99.8914 81.0312 101.66C81.0312 103.428 82.4646 104.861 84.2328 104.861Z" fill="#E6E6E6"/>
<path d="M100.438 104.861C102.206 104.861 103.639 103.428 103.639 101.66C103.639 99.8914 102.206 98.458 100.438 98.458C98.6697 98.458 97.2363 99.8914 97.2363 101.66C97.2363 103.428 98.6697 104.861 100.438 104.861Z" fill="#E6E6E6"/>
<path d="M116.643 104.861C118.411 104.861 119.844 103.428 119.844 101.66C119.844 99.8914 118.411 98.458 116.643 98.458C114.875 98.458 113.441 99.8914 113.441 101.66C113.441 103.428 114.875 104.861 116.643 104.861Z" fill="#E6E6E6"/>
<path d="M132.852 104.861C134.62 104.861 136.053 103.428 136.053 101.66C136.053 99.8914 134.62 98.458 132.852 98.458C131.084 98.458 129.65 99.8914 129.65 101.66C129.65 103.428 131.084 104.861 132.852 104.861Z" fill="#E6E6E6"/>
<path d="M149.055 104.861C150.823 104.861 152.257 103.428 152.257 101.66C152.257 99.8914 150.823 98.458 149.055 98.458C147.287 98.458 145.854 99.8914 145.854 101.66C145.854 103.428 147.287 104.861 149.055 104.861Z" fill="#E6E6E6"/>
<path d="M3.20152 121.269C4.96967 121.269 6.40304 119.836 6.40304 118.068C6.40304 116.3 4.96967 114.866 3.20152 114.866C1.43337 114.866 0 116.3 0 118.068C0 119.836 1.43337 121.269 3.20152 121.269Z" fill="#E6E6E6"/>
<path d="M19.4066 121.269C21.1747 121.269 22.6081 119.836 22.6081 118.068C22.6081 116.3 21.1747 114.866 19.4066 114.866C17.6384 114.866 16.2051 116.3 16.2051 118.068C16.2051 119.836 17.6384 121.269 19.4066 121.269Z" fill="#E6E6E6"/>
<path d="M35.6117 121.269C37.3798 121.269 38.8132 119.836 38.8132 118.068C38.8132 116.3 37.3798 114.866 35.6117 114.866C33.8435 114.866 32.4102 116.3 32.4102 118.068C32.4102 119.836 33.8435 121.269 35.6117 121.269Z" fill="#E6E6E6"/>
<path d="M51.8168 121.269C53.5849 121.269 55.0183 119.836 55.0183 118.068C55.0183 116.3 53.5849 114.866 51.8168 114.866C50.0486 114.866 48.6152 116.3 48.6152 118.068C48.6152 119.836 50.0486 121.269 51.8168 121.269Z" fill="#E6E6E6"/>
<path d="M68.0238 121.269C69.7919 121.269 71.2253 119.836 71.2253 118.068C71.2253 116.3 69.7919 114.866 68.0238 114.866C66.2556 114.866 64.8223 116.3 64.8223 118.068C64.8223 119.836 66.2556 121.269 68.0238 121.269Z" fill="#E6E6E6"/>
<path d="M84.2328 121.269C86.0009 121.269 87.4343 119.836 87.4343 118.068C87.4343 116.3 86.0009 114.866 84.2328 114.866C82.4646 114.866 81.0312 116.3 81.0312 118.068C81.0312 119.836 82.4646 121.269 84.2328 121.269Z" fill="#E6E6E6"/>
<path d="M100.438 121.269C102.206 121.269 103.639 119.836 103.639 118.068C103.639 116.3 102.206 114.866 100.438 114.866C98.6697 114.866 97.2363 116.3 97.2363 118.068C97.2363 119.836 98.6697 121.269 100.438 121.269Z" fill="#E6E6E6"/>
<path d="M116.643 121.269C118.411 121.269 119.844 119.836 119.844 118.068C119.844 116.3 118.411 114.866 116.643 114.866C114.875 114.866 113.441 116.3 113.441 118.068C113.441 119.836 114.875 121.269 116.643 121.269Z" fill="#E6E6E6"/>
<path d="M132.852 121.269C134.62 121.269 136.053 119.836 136.053 118.068C136.053 116.3 134.62 114.866 132.852 114.866C131.084 114.866 129.65 116.3 129.65 118.068C129.65 119.836 131.084 121.269 132.852 121.269Z" fill="#E6E6E6"/>
<path d="M149.055 121.269C150.823 121.269 152.257 119.836 152.257 118.068C152.257 116.3 150.823 114.866 149.055 114.866C147.287 114.866 145.854 116.3 145.854 118.068C145.854 119.836 147.287 121.269 149.055 121.269Z" fill="#E6E6E6"/>
<path d="M3.20152 137.678C4.96967 137.678 6.40304 136.245 6.40304 134.477C6.40304 132.709 4.96967 131.275 3.20152 131.275C1.43337 131.275 0 132.709 0 134.477C0 136.245 1.43337 137.678 3.20152 137.678Z" fill="#E6E6E6"/>
<path d="M19.4066 137.678C21.1747 137.678 22.6081 136.245 22.6081 134.477C22.6081 132.709 21.1747 131.275 19.4066 131.275C17.6384 131.275 16.2051 132.709 16.2051 134.477C16.2051 136.245 17.6384 137.678 19.4066 137.678Z" fill="#E6E6E6"/>
<path d="M35.6117 137.678C37.3798 137.678 38.8132 136.245 38.8132 134.477C38.8132 132.709 37.3798 131.275 35.6117 131.275C33.8435 131.275 32.4102 132.709 32.4102 134.477C32.4102 136.245 33.8435 137.678 35.6117 137.678Z" fill="#E6E6E6"/>
<path d="M51.8168 137.678C53.5849 137.678 55.0183 136.245 55.0183 134.477C55.0183 132.709 53.5849 131.275 51.8168 131.275C50.0486 131.275 48.6152 132.709 48.6152 134.477C48.6152 136.245 50.0486 137.678 51.8168 137.678Z" fill="#E6E6E6"/>
<path d="M68.0238 137.678C69.7919 137.678 71.2253 136.245 71.2253 134.477C71.2253 132.709 69.7919 131.275 68.0238 131.275C66.2556 131.275 64.8223 132.709 64.8223 134.477C64.8223 136.245 66.2556 137.678 68.0238 137.678Z" fill="#E6E6E6"/>
<path d="M84.2328 137.678C86.0009 137.678 87.4343 136.245 87.4343 134.477C87.4343 132.709 86.0009 131.275 84.2328 131.275C82.4646 131.275 81.0312 132.709 81.0312 134.477C81.0312 136.245 82.4646 137.678 84.2328 137.678Z" fill="#E6E6E6"/>
<path d="M100.438 137.678C102.206 137.678 103.639 136.245 103.639 134.477C103.639 132.709 102.206 131.275 100.438 131.275C98.6697 131.275 97.2363 132.709 97.2363 134.477C97.2363 136.245 98.6697 137.678 100.438 137.678Z" fill="#E6E6E6"/>
<path d="M116.643 137.678C118.411 137.678 119.844 136.245 119.844 134.477C119.844 132.709 118.411 131.275 116.643 131.275C114.875 131.275 113.441 132.709 113.441 134.477C113.441 136.245 114.875 137.678 116.643 137.678Z" fill="#E6E6E6"/>
<path d="M132.852 137.678C134.62 137.678 136.053 136.245 136.053 134.477C136.053 132.709 134.62 131.275 132.852 131.275C131.084 131.275 129.65 132.709 129.65 134.477C129.65 136.245 131.084 137.678 132.852 137.678Z" fill="#E6E6E6"/>
<path d="M149.055 137.678C150.823 137.678 152.257 136.245 152.257 134.477C152.257 132.709 150.823 131.275 149.055 131.275C147.287 131.275 145.854 132.709 145.854 134.477C145.854 136.245 147.287 137.678 149.055 137.678Z" fill="#E6E6E6"/>
<path d="M3.20152 154.09C4.96967 154.09 6.40304 152.656 6.40304 150.888C6.40304 149.12 4.96967 147.687 3.20152 147.687C1.43337 147.687 0 149.12 0 150.888C0 152.656 1.43337 154.09 3.20152 154.09Z" fill="#E6E6E6"/>
<path d="M19.4066 154.09C21.1747 154.09 22.6081 152.656 22.6081 150.888C22.6081 149.12 21.1747 147.687 19.4066 147.687C17.6384 147.687 16.2051 149.12 16.2051 150.888C16.2051 152.656 17.6384 154.09 19.4066 154.09Z" fill="#E6E6E6"/>
<path d="M35.6117 154.09C37.3798 154.09 38.8132 152.656 38.8132 150.888C38.8132 149.12 37.3798 147.687 35.6117 147.687C33.8435 147.687 32.4102 149.12 32.4102 150.888C32.4102 152.656 33.8435 154.09 35.6117 154.09Z" fill="#E6E6E6"/>
<path d="M51.8168 154.09C53.5849 154.09 55.0183 152.656 55.0183 150.888C55.0183 149.12 53.5849 147.687 51.8168 147.687C50.0486 147.687 48.6152 149.12 48.6152 150.888C48.6152 152.656 50.0486 154.09 51.8168 154.09Z" fill="#E6E6E6"/>
<path d="M68.0238 154.09C69.7919 154.09 71.2253 152.656 71.2253 150.888C71.2253 149.12 69.7919 147.687 68.0238 147.687C66.2556 147.687 64.8223 149.12 64.8223 150.888C64.8223 152.656 66.2556 154.09 68.0238 154.09Z" fill="#E6E6E6"/>
<path d="M84.2328 154.09C86.0009 154.09 87.4343 152.656 87.4343 150.888C87.4343 149.12 86.0009 147.687 84.2328 147.687C82.4646 147.687 81.0312 149.12 81.0312 150.888C81.0312 152.656 82.4646 154.09 84.2328 154.09Z" fill="#E6E6E6"/>
<path d="M100.438 154.09C102.206 154.09 103.639 152.656 103.639 150.888C103.639 149.12 102.206 147.687 100.438 147.687C98.6697 147.687 97.2363 149.12 97.2363 150.888C97.2363 152.656 98.6697 154.09 100.438 154.09Z" fill="#E6E6E6"/>
<path d="M116.643 154.09C118.411 154.09 119.844 152.656 119.844 150.888C119.844 149.12 118.411 147.687 116.643 147.687C114.875 147.687 113.441 149.12 113.441 150.888C113.441 152.656 114.875 154.09 116.643 154.09Z" fill="#E6E6E6"/>
<path d="M132.852 154.09C134.62 154.09 136.053 152.656 136.053 150.888C136.053 149.12 134.62 147.687 132.852 147.687C131.084 147.687 129.65 149.12 129.65 150.888C129.65 152.656 131.084 154.09 132.852 154.09Z" fill="#E6E6E6"/>
<path d="M149.055 154.09C150.823 154.09 152.257 152.656 152.257 150.888C152.257 149.12 150.823 147.687 149.055 147.687C147.287 147.687 145.854 149.12 145.854 150.888C145.854 152.656 147.287 154.09 149.055 154.09Z" fill="#E6E6E6"/>
<path d="M188.146 28.6123C189.22 28.6123 190.249 29.0388 191.008 29.7978C191.767 30.5569 192.194 31.5864 192.194 32.6599V194.565C192.194 195.097 192.089 195.623 191.886 196.114C191.682 196.605 191.384 197.051 191.008 197.427C190.632 197.803 190.186 198.101 189.695 198.304C189.204 198.508 188.678 198.613 188.146 198.613H71.9793C71.4477 198.613 70.9214 198.508 70.4303 198.304C69.9392 198.101 69.493 197.803 69.1172 197.427C68.7413 197.051 68.4432 196.605 68.2397 196.114C68.0363 195.623 67.9316 195.097 67.9316 194.565V32.6599C67.9316 31.5864 68.3581 30.5569 69.1172 29.7978C69.8762 29.0387 70.9058 28.6123 71.9793 28.6123H188.146" fill="#E6E6E6"/>
<path d="M72.4492 194.094H187.674V33.1318H72.4492V194.094Z" fill="white"/>
<path d="M162.039 58.5977C162.146 58.5977 162.251 58.6186 162.349 58.6593C162.447 58.7 162.537 58.7596 162.612 58.8348C162.687 58.9099 162.747 58.9992 162.787 59.0974C162.828 59.1956 162.849 59.3009 162.849 59.4072V61.0262C162.849 61.2409 162.764 61.4468 162.612 61.5987C162.46 61.7505 162.254 61.8358 162.039 61.8358H98.0869C97.9806 61.8358 97.8753 61.8148 97.7771 61.7741C97.6789 61.7335 97.5896 61.6738 97.5145 61.5987C97.4393 61.5235 97.3797 61.4342 97.339 61.336C97.2983 61.2378 97.2773 61.1325 97.2773 61.0262V59.4072C97.2773 59.3009 97.2983 59.1956 97.339 59.0974C97.3796 58.9992 97.4393 58.9099 97.5145 58.8348C97.5896 58.7596 97.6789 58.7 97.7771 58.6593C97.8753 58.6186 97.9806 58.5977 98.0869 58.5977H162.039" fill="#E6E6E6"/>
<path d="M162.039 66.2871C162.254 66.2871 162.46 66.3724 162.612 66.5242C162.764 66.676 162.849 66.8819 162.849 67.0966V68.7157C162.849 68.9304 162.764 69.1363 162.612 69.2881C162.46 69.4399 162.254 69.5252 162.039 69.5252H98.0869C97.9806 69.5252 97.8753 69.5043 97.7771 69.4636C97.6789 69.4229 97.5896 69.3633 97.5145 69.2881C97.4393 69.2129 97.3797 69.1237 97.339 69.0255C97.2983 68.9273 97.2773 68.822 97.2773 68.7157V67.0966C97.2773 66.9903 97.2983 66.8851 97.339 66.7868C97.3797 66.6886 97.4393 66.5994 97.5145 66.5242C97.5896 66.449 97.6789 66.3894 97.7771 66.3487C97.8753 66.308 97.9806 66.2871 98.0869 66.2871H162.039" fill="#E6E6E6"/>
<path d="M162.039 73.9785C162.254 73.9785 162.46 74.0638 162.612 74.2156C162.764 74.3674 162.849 74.5733 162.849 74.788V76.4071C162.849 76.6218 162.764 76.8277 162.612 76.9795C162.46 77.1313 162.254 77.2166 162.039 77.2166H98.0869C97.8722 77.2166 97.6663 77.1313 97.5145 76.9795C97.3626 76.8277 97.2773 76.6218 97.2773 76.4071V74.788C97.2773 74.5733 97.3626 74.3674 97.5145 74.2156C97.6663 74.0638 97.8722 73.9785 98.0869 73.9785H162.039" fill="#6C63FF"/>
<path d="M162.039 81.8359C162.254 81.8359 162.46 81.9212 162.612 82.073C162.764 82.2248 162.849 82.4308 162.849 82.6455V84.2645C162.849 84.4792 162.764 84.6851 162.612 84.8369C162.46 84.9887 162.254 85.074 162.039 85.074H98.0869C97.9806 85.074 97.8753 85.0531 97.7771 85.0124C97.6789 84.9717 97.5896 84.9121 97.5145 84.8369C97.4393 84.7618 97.3797 84.6725 97.339 84.5743C97.2983 84.4761 97.2773 84.3708 97.2773 84.2645V82.6455C97.2773 82.5391 97.2983 82.4339 97.339 82.3357C97.3797 82.2375 97.4393 82.1482 97.5145 82.073C97.5896 81.9979 97.6789 81.9382 97.7771 81.8976C97.8753 81.8569 97.9806 81.8359 98.0869 81.8359H162.039" fill="#E6E6E6"/>
<path d="M162.039 89.5273C162.254 89.5273 162.46 89.6126 162.612 89.7645C162.764 89.9163 162.849 90.1222 162.849 90.3369V91.9559C162.849 92.0622 162.828 92.1675 162.787 92.2657C162.747 92.3639 162.687 92.4532 162.612 92.5283C162.537 92.6035 162.447 92.6632 162.349 92.7038C162.251 92.7445 162.146 92.7655 162.039 92.7655H98.0869C97.9806 92.7655 97.8753 92.7445 97.7771 92.7038C97.6789 92.6632 97.5896 92.6035 97.5145 92.5283C97.4393 92.4532 97.3796 92.3639 97.339 92.2657C97.2983 92.1675 97.2773 92.0622 97.2773 91.9559V90.3369C97.2773 90.2306 97.2983 90.1253 97.339 90.0271C97.3797 89.9289 97.4393 89.8396 97.5145 89.7645C97.5896 89.6893 97.6789 89.6297 97.7771 89.589C97.8753 89.5483 97.9806 89.5273 98.0869 89.5273H162.039" fill="#E6E6E6"/>
<path d="M162.039 97.2168C162.254 97.2168 162.46 97.3021 162.612 97.4539C162.764 97.6057 162.849 97.8116 162.849 98.0263V99.6454C162.849 99.8601 162.764 100.066 162.612 100.218C162.46 100.37 162.254 100.455 162.039 100.455H98.0869C97.8722 100.455 97.6663 100.37 97.5145 100.218C97.3626 100.066 97.2773 99.8601 97.2773 99.6454V98.0263C97.2773 97.8116 97.3626 97.6057 97.5145 97.4539C97.6663 97.3021 97.8722 97.2168 98.0869 97.2168H162.039" fill="#E6E6E6"/>
<path d="M98.4945 123.088C98.2453 123.088 98.0064 123.187 97.8302 123.363C97.654 123.54 97.5549 123.779 97.5547 124.028V167.688C97.555 167.937 97.6541 168.176 97.8303 168.352C98.0064 168.528 98.2453 168.627 98.4945 168.628H161.521C161.77 168.627 162.009 168.528 162.185 168.352C162.362 168.176 162.461 167.937 162.461 167.688V124.028C162.461 123.779 162.362 123.54 162.185 123.363C162.009 123.187 161.77 123.088 161.521 123.088H98.4945Z" fill="#6C63FF"/>
<path d="M130.271 75.738L129.609 75.5622L144.048 21.249H227.794V21.9337H144.573L130.271 75.738Z" fill="#3F3D56"/>
<path d="M234.638 28.7763C233.217 28.7763 231.828 28.355 230.646 27.5655C229.465 26.776 228.544 25.6538 228 24.3409C227.456 23.028 227.314 21.5833 227.591 20.1896C227.868 18.7958 228.553 17.5156 229.558 16.5107C230.562 15.5059 231.843 14.8215 233.236 14.5443C234.63 14.2671 236.075 14.4094 237.388 14.9532C238.701 15.497 239.823 16.4179 240.612 17.5995C241.402 18.7811 241.823 20.1702 241.823 21.5913C241.821 23.4962 241.063 25.3225 239.716 26.6695C238.369 28.0165 236.543 28.7742 234.638 28.7763V28.7763ZM234.638 15.0905C233.352 15.0905 232.096 15.4718 231.027 16.1861C229.958 16.9004 229.124 17.9157 228.632 19.1036C228.14 20.2914 228.012 21.5985 228.262 22.8595C228.513 24.1206 229.132 25.2789 230.041 26.188C230.951 27.0972 232.109 27.7163 233.37 27.9671C234.631 28.218 235.938 28.0892 237.126 27.5972C238.314 27.1052 239.329 26.272 240.043 25.2029C240.758 24.1339 241.139 22.877 241.139 21.5913C241.137 19.8678 240.451 18.2154 239.233 16.9967C238.014 15.778 236.362 15.0925 234.638 15.0905Z" fill="#3F3D56"/>
<path d="M234.638 24.3288C236.149 24.3288 237.375 23.1033 237.375 21.5917C237.375 20.08 236.149 18.8545 234.638 18.8545C233.126 18.8545 231.9 20.08 231.9 21.5917C231.9 23.1033 233.126 24.3288 234.638 24.3288Z" fill="#6C63FF"/>
<path d="M128.033 167.723L128.694 167.899L114.152 222.185L30.4062 222.025L30.4077 221.34L113.628 221.5L128.033 167.723Z" fill="#3F3D56"/>
<path d="M23.5797 214.483C25.0007 214.486 26.3891 214.91 27.5691 215.702C28.7492 216.494 29.668 217.618 30.2093 218.932C30.7506 220.245 30.8901 221.69 30.6102 223.084C30.3303 224.477 29.6435 225.756 28.6368 226.759C27.63 227.762 26.3484 228.444 24.9541 228.718C23.5598 228.993 22.1154 228.848 20.8036 228.301C19.4917 227.755 18.3714 226.832 17.5841 225.649C16.7969 224.466 16.3781 223.076 16.3809 221.655C16.3867 219.75 17.1479 217.925 18.4974 216.58C19.847 215.236 21.6748 214.482 23.5797 214.483V214.483ZM23.5535 228.169C24.8392 228.172 26.0968 227.793 27.1672 227.081C28.2376 226.368 29.0727 225.355 29.567 224.168C30.0613 222.981 30.1926 221.674 29.9442 220.412C29.6958 219.151 29.0788 217.991 28.1714 217.081C27.264 216.17 26.1069 215.548 24.8464 215.295C23.5858 215.042 22.2785 215.168 21.0897 215.658C19.9009 216.148 18.884 216.979 18.1677 218.046C17.4513 219.114 17.0676 220.37 17.0652 221.656C17.0638 223.379 17.7462 225.033 18.9625 226.254C20.1789 227.475 21.83 228.164 23.5535 228.169V228.169Z" fill="#3F3D56"/>
<path d="M23.5653 224.407C25.077 224.407 26.3024 223.181 26.3024 221.67C26.3024 220.158 25.077 218.933 23.5653 218.933C22.0536 218.933 20.8281 220.158 20.8281 221.67C20.8281 223.181 22.0536 224.407 23.5653 224.407Z" fill="#6C63FF"/>
<path d="M289.843 282.213H285.014L285.876 255.48L298.639 256.17L289.843 282.213Z" fill="#FFB8B8"/>
<path d="M290.5 297.576C289.042 298.242 287.821 292.852 286.592 294.06C283.152 297.44 279.599 298.176 275.008 296.7L274.902 296.682C274.625 296.593 274.369 296.449 274.149 296.258C273.93 296.067 273.751 295.833 273.625 295.571C273.498 295.31 273.426 295.025 273.412 294.734C273.399 294.443 273.445 294.153 273.547 293.881C273.669 293.554 273.869 293.263 274.129 293.031C274.389 292.799 274.701 292.634 275.039 292.55L278.696 291.635L284.439 281.536L290.302 281.14C291.609 282.806 292.521 284.747 292.97 286.816C293.418 288.886 293.392 291.03 292.892 293.088C292.36 295.26 291.539 297.102 290.5 297.576Z" fill="#2F2E41"/>
<path d="M335.723 278.679L331.232 280.456L322.201 255.279L334.323 251.227L335.723 278.679Z" fill="#FFB8B8"/>
<path d="M341.985 292.722C340.875 293.877 337.757 289.314 337.058 290.89C335.103 295.298 332.069 297.289 327.258 297.605L327.152 297.628C326.862 297.647 326.571 297.607 326.296 297.51C326.022 297.413 325.77 297.262 325.556 297.065C325.342 296.868 325.17 296.629 325.05 296.364C324.931 296.099 324.867 295.812 324.862 295.521C324.855 295.173 324.934 294.828 325.09 294.517C325.247 294.206 325.476 293.938 325.759 293.735L328.824 291.539L330.45 280.035L335.756 277.511C337.584 278.579 339.146 280.049 340.325 281.808C341.503 283.568 342.267 285.572 342.56 287.669C342.864 289.884 342.777 291.899 341.985 292.722Z" fill="#2F2E41"/>
<path d="M321.059 149.595L313.645 151.501C313.084 151.645 312.498 151.662 311.93 151.55C311.361 151.439 310.825 151.201 310.361 150.855C309.896 150.509 309.515 150.063 309.245 149.55C308.976 149.038 308.824 148.471 308.802 147.892C308.781 147.36 308.871 146.829 309.064 146.333C309.258 145.837 309.551 145.386 309.927 145.008C310.302 144.63 310.752 144.334 311.247 144.137C311.742 143.94 312.272 143.848 312.804 143.865L319.335 144.076L331.919 139.493L320.025 130.623L321.404 118.205L344.585 136.815C344.998 137.146 345.338 137.56 345.585 138.03C345.831 138.499 345.977 139.014 346.015 139.543V139.543C346.078 140.432 345.832 141.315 345.317 142.042C344.802 142.769 344.051 143.296 343.192 143.531C337.76 147.964 329.847 149.321 321.059 149.595Z" fill="#FFB8B8"/>
<path d="M304.157 103.027C310.825 103.027 316.23 97.6215 316.23 90.9538C316.23 84.2861 310.825 78.8809 304.157 78.8809C297.489 78.8809 292.084 84.2861 292.084 90.9538C292.084 97.6215 297.489 103.027 304.157 103.027Z" fill="#FFB8B8"/>
<path d="M318.989 107.511L302.777 114.065C303.253 108.94 301.91 103.811 298.982 99.5771L312.435 96.4727C312.26 100.581 314.482 104.254 318.989 107.511Z" fill="#FFB8B8"/>
<path d="M321.922 135.623C308.853 136.669 301.705 134.934 290.705 128.552L294.844 118.894C294.637 117.44 294.834 115.956 295.414 114.607C295.995 113.257 296.936 112.094 298.135 111.245L302.433 108.201L315.541 104.406L316.129 104.436C317.872 104.523 319.524 105.243 320.775 106.461C322.026 107.678 322.79 109.311 322.924 111.051C325.772 119.561 325.79 127.787 321.922 135.623Z" fill="#6C63FF"/>
<path d="M319.337 155.803L291.397 152.698L289.327 143.73C284.739 136.805 286.742 130.461 292.087 124.413C301.829 130.665 310.872 133.367 323.821 131.312C320.377 139.687 317.197 147.918 319.337 155.803Z" fill="#2F2E41"/>
<path d="M341.065 260.32L318.816 259.112L311.572 201.507L305.708 258.767L279.32 257.56C287.37 219.917 292.962 184.181 291.393 151.318L318.988 153.733C328.341 163.594 332.984 179.335 335.718 198.058C338.452 216.781 340.655 238.485 341.065 260.32Z" fill="#2F2E41"/>
<path d="M317.447 79.9636C319.738 79.9636 321.596 78.1057 321.596 75.8138C321.596 73.522 319.738 71.6641 317.447 71.6641C315.155 71.6641 313.297 73.522 313.297 75.8138C313.297 78.1057 315.155 79.9636 317.447 79.9636Z" fill="#2F2E41"/>
<path d="M313.173 74.7986C313.241 73.7458 313.708 72.7585 314.478 72.0379C315.249 71.3173 316.265 70.9176 317.32 70.9201C317.235 70.9092 317.15 70.896 317.062 70.8904C315.964 70.8198 314.883 71.1884 314.056 71.9151C313.23 72.6418 312.726 73.667 312.655 74.7654C312.584 75.8637 312.953 76.945 313.68 77.7716C314.406 78.5982 315.432 79.1022 316.53 79.1728C316.617 79.1784 316.703 79.1762 316.79 79.1764C315.743 79.0438 314.786 78.5172 314.114 77.7038C313.442 76.8905 313.105 75.8515 313.173 74.7986V74.7986Z" fill="#2F2E41"/>
<path d="M313.152 76.5695C309.451 73.4993 298.836 77.4013 298.151 79.4654C293.147 80.1475 289.357 83.0674 289.357 88.2592V88.2592C292.333 89.4782 295.717 89.328 299.375 88.2592C305.206 93.0114 305.606 98.9853 302.06 105.847L306.423 105.934L311.831 98.0302L312.089 106.047L322.09 105.847V94.3576C322.122 90.5375 321.243 86.7648 319.525 83.3526C317.967 80.3249 315.548 78.557 313.152 76.5695Z" fill="#2F2E41"/>
<path d="M303.836 96.8689C304.932 96.8689 305.82 95.625 305.82 94.0907C305.82 92.5563 304.932 91.3125 303.836 91.3125C302.74 91.3125 301.852 92.5563 301.852 94.0907C301.852 95.625 302.74 96.8689 303.836 96.8689Z" fill="#FFB8B8"/>
<path d="M288.657 200.637C288.842 200.637 289.019 200.71 289.15 200.841C289.28 200.972 289.354 201.149 289.354 201.334V229.207C289.354 229.392 289.28 229.569 289.15 229.7C289.019 229.831 288.842 229.904 288.657 229.904H268.658C268.473 229.904 268.296 229.831 268.165 229.7C268.034 229.569 267.961 229.392 267.961 229.207V201.334C267.961 201.149 268.034 200.972 268.165 200.841C268.296 200.71 268.473 200.637 268.658 200.637H288.657" fill="#6C63FF"/>
<path d="M291.393 190.297L292.068 202.004C292.112 202.757 291.987 203.511 291.703 204.21C291.419 204.909 290.982 205.537 290.425 206.046C289.869 206.556 289.205 206.935 288.484 207.156C287.762 207.378 287 207.436 286.253 207.326C283.279 206.888 283.212 203.98 283.941 201.063L286.719 189.952C293.533 165.519 295.373 141.537 295.028 118.147C295.014 117.354 295.161 116.566 295.46 115.831C295.758 115.096 296.203 114.43 296.767 113.871C297.33 113.313 298.001 112.875 298.739 112.583C299.476 112.291 300.265 112.152 301.058 112.173C301.832 112.195 302.594 112.371 303.299 112.689C304.005 113.006 304.641 113.461 305.17 114.025C305.699 114.59 306.112 115.254 306.384 115.978C306.656 116.703 306.782 117.474 306.754 118.247C305.79 145.713 301.784 170.654 291.393 190.297Z" fill="#FFB8B8"/>
</g>
<defs>
<clipPath id="clip0_1075_5277">
<rect width="367.637" height="297.968" fill="white"/>
</clipPath>
</defs>
</svg>
